<svg width="22" height="22" viewBox="0 0 22 22" fill="none" xmlns="http://www.w3.org/2000/svg">
<path d="M15.2075 6.94831L9.16668 12.9891L5.87584 9.70748L4.58334 11L9.16668 15.5833L16.5 8.24998L15.2075 6.94831ZM11 1.83331C5.94001 1.83331 1.83334 5.93998 1.83334 11C1.83334 16.06 5.94001 20.1666 11 20.1666C16.06 20.1666 20.1667 16.06 20.1667 11C20.1667 5.93998 16.06 1.83331 11 1.83331ZM11 18.3333C6.94834 18.3333 3.66668 15.0516 3.66668 11C3.66668 6.94831 6.94834 3.66665 11 3.66665C15.0517 3.66665 18.3333 6.94831 18.3333 11C18.3333 15.0516 15.0517 18.3333 11 18.3333Z" fill="url(#paint0_linear_656_3080)"/>
<path d="M11 1.83325C5.94001 1.83325 1.83334 5.93992 1.83334 10.9999C1.83334 16.0599 5.94001 20.1666 11 20.1666C16.06 20.1666 20.1667 16.0599 20.1667 10.9999C20.1667 5.93992 16.06 1.83325 11 1.83325ZM11 18.3333C6.94834 18.3333 3.66668 15.0516 3.66668 10.9999C3.66668 6.94825 6.94834 3.66659 11 3.66659C15.0517 3.66659 18.3333 6.94825 18.3333 10.9999C18.3333 15.0516 15.0517 18.3333 11 18.3333Z" fill="#4086F4"/>
<defs>
<linearGradient id="paint0_linear_656_3080" x1="1.83334" y1="11" x2="14.5486" y2="11" gradientUnits="userSpaceOnUse">
<stop stop-color="#FF8E3C"/>
<stop offset="0.5" stop-color="#F7931A"/>
<stop offset="1" stop-color="#FFAF4F"/>
</linearGradient>
</defs>
</svg>
