<svg width="24" height="24" viewBox="0 0 24 24" fill="none" xmlns="http://www.w3.org/2000/svg">
<path fill-rule="evenodd" clip-rule="evenodd" d="M3.3192 5.41988C2.5918 6.0342 2.10465 7.03098 2.10465 8.59459V15.4054C2.10465 16.969 2.5918 17.9658 3.3192 18.5801C4.05735 19.2035 5.1695 19.5405 6.65116 19.5405H17.3488C18.8305 19.5405 19.9426 19.2035 20.6808 18.5801C21.4082 17.9658 21.8953 16.969 21.8953 15.4054V8.59459C21.8953 7.03098 21.4082 6.0342 20.6808 5.41988C19.9426 4.79647 18.8305 4.45946 17.3488 4.45946H6.65116C5.1695 4.45946 4.05735 4.79647 3.3192 5.41988ZM2.22731 4.35039C3.36125 3.39272 4.92352 3 6.65116 3H17.3488C19.0765 3 20.6388 3.39272 21.7726 4.35039C22.9174 5.31715 23.5 6.75281 23.5 8.59459V15.4054C23.5 17.2472 22.9174 18.6829 21.7726 19.6496C20.6388 20.6073 19.0765 21 17.3488 21H6.65116C4.92352 21 3.36125 20.6073 2.22731 19.6496C1.08262 18.6829 0.5 17.2472 0.5 15.4054V8.59459C0.5 6.75281 1.08262 5.31715 2.22731 4.35039Z" fill="#4086F4"/>
<path fill-rule="evenodd" clip-rule="evenodd" d="M19.8773 7.4369C20.1482 7.75581 20.0836 8.2141 19.7331 8.46051L13.7989 12.631C12.7394 13.3755 11.2609 13.3755 10.2014 12.631L4.26736 8.46051C3.91672 8.2141 3.85212 7.75581 4.12306 7.4369C4.394 7.11799 4.89787 7.05923 5.24851 7.30566L11.1825 11.476C11.6641 11.8145 12.3363 11.8145 12.8178 11.476L18.7519 7.30566C19.1025 7.05923 19.6064 7.11799 19.8773 7.4369Z" fill="url(#paint0_linear_649_4328)"/>
<defs>
<linearGradient id="paint0_linear_649_4328" x1="3.95557" y1="10.1713" x2="15.1144" y2="10.1713" gradientUnits="userSpaceOnUse">
<stop stop-color="#FF8E3C"/>
<stop offset="0.5" stop-color="#F7931A"/>
<stop offset="1" stop-color="#FFAF4F"/>
</linearGradient>
</defs>
</svg>
