<svg width="20" height="20" viewBox="0 0 20 20" fill="none" xmlns="http://www.w3.org/2000/svg">
<g clip-path="url(#clip0_826_65300)">
<path d="M9.16667 5.00008C10.0871 5.00008 10.8333 4.25389 10.8333 3.33341C10.8333 2.41294 10.0871 1.66675 9.16667 1.66675C8.24619 1.66675 7.5 2.41294 7.5 3.33341C7.5 4.25389 8.24619 5.00008 9.16667 5.00008Z" stroke="white" stroke-width="1.66667" stroke-linecap="round" stroke-linejoin="round"/>
<path d="M14.9997 8.33333C15.9201 8.33333 16.6663 7.58714 16.6663 6.66667C16.6663 5.74619 15.9201 5 14.9997 5C14.0792 5 13.333 5.74619 13.333 6.66667C13.333 7.58714 14.0792 8.33333 14.9997 8.33333Z" stroke="white" stroke-width="1.66667" stroke-linecap="round" stroke-linejoin="round"/>
<path d="M16.6667 15.0001C17.5871 15.0001 18.3333 14.2539 18.3333 13.3334C18.3333 12.4129 17.5871 11.6667 16.6667 11.6667C15.7462 11.6667 15 12.4129 15 13.3334C15 14.2539 15.7462 15.0001 16.6667 15.0001Z" stroke="white" stroke-width="1.66667" stroke-linecap="round" stroke-linejoin="round"/>
<path d="M7.50012 8.3335C8.04729 8.3335 8.58911 8.44127 9.09463 8.65066C9.60015 8.86006 10.0595 9.16697 10.4464 9.55388C10.8333 9.9408 11.1402 10.4001 11.3496 10.9056C11.559 11.4112 11.6668 11.953 11.6668 12.5002V15.4168C11.6666 16.1139 11.4167 16.7878 10.9625 17.3165C10.5082 17.8453 9.87966 18.1938 9.19061 18.2991C8.50155 18.4044 7.79758 18.2594 7.20619 17.8904C6.61481 17.5214 6.17513 16.9528 5.96678 16.2877C5.61123 15.1404 4.86123 14.3891 3.71678 14.0335C3.05194 13.8253 2.48359 13.3859 2.11458 12.795C1.74558 12.204 1.6003 11.5005 1.70502 10.8117C1.80975 10.1229 2.15757 9.49441 2.68554 9.03984C3.21351 8.58528 3.88676 8.33471 4.58345 8.3335H7.50012Z" stroke="white" stroke-width="1.66667" stroke-linecap="round" stroke-linejoin="round"/>
</g>
<defs>
<clipPath id="clip0_826_65300">
<rect width="20" height="20" fill="white"/>
</clipPath>
</defs>
</svg>
