<svg width="24" height="24" viewBox="0 0 24 24" fill="none" xmlns="http://www.w3.org/2000/svg">
<path d="M21.6034 4H2.39665C1.35087 4 0.5 5.00298 0.5 6.23585V10.7642C0.5 11.997 1.35087 13 2.39665 13H13.5405C13.7394 13 13.9007 12.8099 13.9007 12.5755C13.9007 12.341 13.7394 12.1509 13.5405 12.1509H2.39665C1.74797 12.1509 1.22023 11.5288 1.22023 10.7641V6.23579C1.22023 5.47111 1.74797 4.84899 2.39665 4.84899H21.6033C22.252 4.84899 22.7797 5.47111 22.7797 6.23579V8.49997C22.7797 8.73441 22.9409 8.92452 23.1399 8.92452C23.3387 8.92452 23.5 8.73446 23.5 8.49997V6.23579C23.5 5.00298 22.6491 4 21.6034 4Z" fill="#4086F4" stroke="#4086F4" stroke-width="0.6"/>
<path d="M15 15.5L17.3333 18.5L23 11.5" stroke="#4086F4" stroke-width="1.5" stroke-linecap="round" stroke-linejoin="round"/>
<path d="M10.6703 8.661L9.96904 8.30005L10.6703 7.9391C10.8231 7.86044 10.8754 7.68626 10.7872 7.55005C10.699 7.4138 10.5036 7.36712 10.3508 7.44581L9.64956 7.80676V7.08487C9.64956 6.92759 9.50654 6.80005 9.33008 6.80005C9.15362 6.80005 9.01059 6.92755 9.01059 7.08487V7.80676L8.30934 7.44581C8.15651 7.36712 7.96117 7.41384 7.87294 7.55005C7.78471 7.68626 7.83707 7.86044 7.98986 7.9391L8.69111 8.30005L7.98986 8.661C7.83707 8.73965 7.78471 8.91384 7.87294 9.05005C7.93212 9.14142 8.03947 9.19247 8.1499 9.19247C8.2041 9.19247 8.25901 9.18018 8.30934 9.15428L9.01059 8.79333V9.51523C9.01059 9.67251 9.15362 9.80005 9.33008 9.80005C9.50654 9.80005 9.64956 9.67254 9.64956 9.51523V8.79333L10.3508 9.15428C10.4011 9.18018 10.4561 9.19247 10.5103 9.19247C10.6207 9.19247 10.728 9.14135 10.7872 9.05005C10.8754 8.91384 10.8231 8.73965 10.6703 8.661Z" fill="url(#paint0_linear_826_65174)"/>
<path d="M5.86073 8.661L5.15947 8.30005L5.86073 7.9391C6.01351 7.86044 6.06588 7.68626 5.97765 7.55005C5.88942 7.4138 5.69403 7.36712 5.54124 7.44581L4.83999 7.80676V7.08487C4.83999 6.92759 4.69697 6.80005 4.52051 6.80005C4.34405 6.80005 4.20102 6.92755 4.20102 7.08487V7.80676L3.49977 7.44581C3.34694 7.36712 3.1516 7.41384 3.06337 7.55005C2.97514 7.68626 3.0275 7.86044 3.18029 7.9391L3.88154 8.30005L3.18029 8.661C3.0275 8.73965 2.97514 8.91384 3.06337 9.05005C3.12255 9.14142 3.2299 9.19247 3.34033 9.19247C3.39453 9.19247 3.44944 9.18018 3.49977 9.15428L4.20102 8.79333V9.51523C4.20102 9.67251 4.34405 9.80005 4.52051 9.80005C4.69697 9.80005 4.83999 9.67254 4.83999 9.51523V8.79333L5.54124 9.15428C5.59154 9.18018 5.64649 9.19247 5.70069 9.19247C5.81111 9.19247 5.91847 9.14135 5.97765 9.05005C6.06588 8.91384 6.01351 8.73965 5.86073 8.661Z" fill="url(#paint1_linear_826_65174)"/>
<path d="M15.4808 8.661L14.7796 8.30005L15.4808 7.9391C15.6336 7.86044 15.686 7.68626 15.5978 7.55005C15.5095 7.4138 15.3141 7.36712 15.1614 7.44581L14.4601 7.80676V7.08487C14.4601 6.92759 14.3171 6.80005 14.1406 6.80005C13.9642 6.80005 13.8211 6.92755 13.8211 7.08487V7.80676L13.1199 7.44581C12.9671 7.36712 12.7717 7.41384 12.6835 7.55005C12.5953 7.68626 12.6476 7.86044 12.8004 7.9391L13.5017 8.30005L12.8004 8.661C12.6476 8.73965 12.5953 8.91384 12.6835 9.05005C12.7427 9.14142 12.85 9.19247 12.9604 9.19247C13.0146 9.19247 13.0696 9.18018 13.1199 9.15428L13.8211 8.79333V9.51523C13.8211 9.67251 13.9642 9.80005 14.1406 9.80005C14.3171 9.80005 14.4601 9.67254 14.4601 9.51523V8.79333L15.1614 9.15428C15.2117 9.18018 15.2666 9.19247 15.3208 9.19247C15.4312 9.19247 15.5386 9.14135 15.5978 9.05005C15.686 8.91384 15.6336 8.73965 15.4808 8.661Z" fill="url(#paint2_linear_826_65174)"/>
<defs>
<linearGradient id="paint0_linear_826_65174" x1="7.83008" y1="8.30005" x2="9.91076" y2="8.30005" gradientUnits="userSpaceOnUse">
<stop stop-color="#FF8E3C"/>
<stop offset="0.5" stop-color="#F7931A"/>
<stop offset="1" stop-color="#FFAF4F"/>
</linearGradient>
<linearGradient id="paint1_linear_826_65174" x1="3.02051" y1="8.30005" x2="5.10119" y2="8.30005" gradientUnits="userSpaceOnUse">
<stop stop-color="#FF8E3C"/>
<stop offset="0.5" stop-color="#F7931A"/>
<stop offset="1" stop-color="#FFAF4F"/>
</linearGradient>
<linearGradient id="paint2_linear_826_65174" x1="12.6406" y1="8.30005" x2="14.7213" y2="8.30005" gradientUnits="userSpaceOnUse">
<stop stop-color="#FF8E3C"/>
<stop offset="0.5" stop-color="#F7931A"/>
<stop offset="1" stop-color="#FFAF4F"/>
</linearGradient>
</defs>
</svg>
