<svg width="20" height="20" viewBox="0 0 20 20" fill="none" xmlns="http://www.w3.org/2000/svg">
<g clip-path="url(#clip0_826_66295)">
<path d="M18.1417 5.76324C18.094 5.67299 18.0125 5.60528 17.915 5.57489C17.8175 5.54451 17.712 5.55391 17.6214 5.60106C17.5308 5.6482 17.4626 5.72926 17.4316 5.82654C17.4005 5.92382 17.4092 6.02942 17.4558 6.1203C18.2857 7.70434 18.5864 9.51254 18.3138 11.2799C18.0413 13.0473 17.2099 14.6809 15.9414 15.9414C12.6658 19.2167 7.33532 19.2177 4.0583 15.941C4.00423 15.887 3.93532 15.8502 3.86031 15.8353C3.78531 15.8204 3.70756 15.828 3.63692 15.8573C3.56628 15.8866 3.50591 15.9362 3.46346 15.9998C3.42101 16.0634 3.39838 16.1382 3.39844 16.2147V18.4373C3.39844 18.5399 3.43917 18.6382 3.51166 18.7107C3.58416 18.7832 3.68249 18.8239 3.78502 18.8239C3.88755 18.8239 3.98588 18.7832 4.05837 18.7107C4.13087 18.6382 4.1716 18.5399 4.1716 18.4373V17.0877C5.80551 18.4306 7.85308 19.168 9.96802 19.1751C12.083 19.1823 14.1355 18.4588 15.7784 17.127C17.4214 15.7952 18.5539 13.9368 18.9846 11.8661C19.4152 9.7955 19.1175 7.63966 18.1417 5.76324Z" fill="white" stroke="white" stroke-width="0.5"/>
<path d="M4.05876 4.05869C7.33543 0.782366 12.6659 0.78271 15.9418 4.05835C15.9959 4.1125 16.0647 4.1494 16.1398 4.16436C16.2148 4.17933 16.2925 4.1717 16.3632 4.14243C16.4339 4.11317 16.4943 4.06358 16.5367 3.99996C16.5792 3.93634 16.6018 3.86155 16.6017 3.78507V1.56241C16.6017 1.45988 16.561 1.36155 16.4885 1.28905C16.416 1.21656 16.3177 1.17583 16.2151 1.17583C16.1126 1.17583 16.0143 1.21656 15.9418 1.28905C15.8693 1.36155 15.8285 1.45988 15.8285 1.56241V2.91202C12.2278 -0.0529382 6.87744 0.146534 3.51219 3.51178C2.12686 4.88815 1.21883 6.67209 0.921219 8.60211C0.623604 10.5321 0.952046 12.5067 1.85841 14.2365C1.90615 14.3268 1.98765 14.3945 2.08513 14.4249C2.18261 14.4552 2.28816 14.4458 2.37873 14.3987C2.4693 14.3515 2.53755 14.2705 2.56857 14.1732C2.5996 14.0759 2.59089 13.9703 2.54434 13.8794C1.71446 12.2955 1.41375 10.4873 1.68628 8.71999C1.95881 6.95266 2.79026 5.31909 4.05876 4.05869Z" fill="white" stroke="white" stroke-width="0.5"/>
<mask id="path-3-inside-1_826_66295" fill="white">
<path d="M5.5 10.4912V14.5088C5.50073 14.7715 5.59974 15.0231 5.7754 15.2088C5.95106 15.3945 6.18909 15.4992 6.43751 15.5H13.5625C13.8109 15.4993 14.049 15.3946 14.2246 15.2089C14.4003 15.0231 14.4993 14.7715 14.5 14.5088V10.4912C14.4993 10.2285 14.4003 9.97687 14.2246 9.79114C14.049 9.60542 13.8109 9.50075 13.5625 9.5H6.43751C6.18909 9.50078 5.95106 9.60546 5.7754 9.79117C5.59975 9.97689 5.50074 10.2285 5.5 10.4912ZM12.5 11.7237C12.6452 11.7237 12.7872 11.7693 12.908 11.8546C13.0287 11.9399 13.1228 12.0611 13.1784 12.203C13.234 12.3448 13.2485 12.5009 13.2202 12.6515C13.1918 12.8021 13.1219 12.9404 13.0192 13.049C12.9165 13.1575 12.7857 13.2315 12.6433 13.2614C12.5008 13.2914 12.3532 13.276 12.219 13.2172C12.0849 13.1585 11.9702 13.059 11.8895 12.9313C11.8088 12.8037 11.7658 12.6536 11.7658 12.5C11.7659 12.2942 11.8434 12.0969 11.981 11.9513C12.1187 11.8058 12.3053 11.7239 12.5 11.7237ZM10 11.7237C10.1452 11.7237 10.2872 11.7693 10.4079 11.8546C10.5287 11.9399 10.6228 12.0611 10.6784 12.203C10.7339 12.3448 10.7485 12.5009 10.7201 12.6515C10.6918 12.8021 10.6219 12.9404 10.5192 13.049C10.4165 13.1575 10.2857 13.2315 10.1432 13.2614C10.0008 13.2914 9.85318 13.276 9.71901 13.2172C9.58484 13.1585 9.47017 13.059 9.38948 12.9313C9.3088 12.8037 9.26574 12.6536 9.26574 12.5C9.26593 12.2942 9.34335 12.0969 9.48101 11.9513C9.61867 11.8058 9.80532 11.7239 10 11.7237ZM7.49998 11.7237C7.64521 11.7237 7.78717 11.7693 7.90792 11.8546C8.02866 11.9399 8.12278 12.0611 8.17835 12.203C8.23392 12.3448 8.24846 12.5009 8.22013 12.6515C8.1918 12.8021 8.12187 12.9404 8.01918 13.049C7.91649 13.1575 7.78566 13.2315 7.64323 13.2614C7.50079 13.2914 7.35316 13.276 7.21899 13.2172C7.08482 13.1585 6.97015 13.059 6.88947 12.9313C6.80879 12.8037 6.76572 12.6536 6.76572 12.5C6.76591 12.2942 6.84333 12.0969 6.98099 11.9513C7.11865 11.8058 7.3053 11.7239 7.49998 11.7237Z"/>
</mask>
<path d="M5.5 10.4912V14.5088C5.50073 14.7715 5.59974 15.0231 5.7754 15.2088C5.95106 15.3945 6.18909 15.4992 6.43751 15.5H13.5625C13.8109 15.4993 14.049 15.3946 14.2246 15.2089C14.4003 15.0231 14.4993 14.7715 14.5 14.5088V10.4912C14.4993 10.2285 14.4003 9.97687 14.2246 9.79114C14.049 9.60542 13.8109 9.50075 13.5625 9.5H6.43751C6.18909 9.50078 5.95106 9.60546 5.7754 9.79117C5.59975 9.97689 5.50074 10.2285 5.5 10.4912ZM12.5 11.7237C12.6452 11.7237 12.7872 11.7693 12.908 11.8546C13.0287 11.9399 13.1228 12.0611 13.1784 12.203C13.234 12.3448 13.2485 12.5009 13.2202 12.6515C13.1918 12.8021 13.1219 12.9404 13.0192 13.049C12.9165 13.1575 12.7857 13.2315 12.6433 13.2614C12.5008 13.2914 12.3532 13.276 12.219 13.2172C12.0849 13.1585 11.9702 13.059 11.8895 12.9313C11.8088 12.8037 11.7658 12.6536 11.7658 12.5C11.7659 12.2942 11.8434 12.0969 11.981 11.9513C12.1187 11.8058 12.3053 11.7239 12.5 11.7237ZM10 11.7237C10.1452 11.7237 10.2872 11.7693 10.4079 11.8546C10.5287 11.9399 10.6228 12.0611 10.6784 12.203C10.7339 12.3448 10.7485 12.5009 10.7201 12.6515C10.6918 12.8021 10.6219 12.9404 10.5192 13.049C10.4165 13.1575 10.2857 13.2315 10.1432 13.2614C10.0008 13.2914 9.85318 13.276 9.71901 13.2172C9.58484 13.1585 9.47017 13.059 9.38948 12.9313C9.3088 12.8037 9.26574 12.6536 9.26574 12.5C9.26593 12.2942 9.34335 12.0969 9.48101 11.9513C9.61867 11.8058 9.80532 11.7239 10 11.7237ZM7.49998 11.7237C7.64521 11.7237 7.78717 11.7693 7.90792 11.8546C8.02866 11.9399 8.12278 12.0611 8.17835 12.203C8.23392 12.3448 8.24846 12.5009 8.22013 12.6515C8.1918 12.8021 8.12187 12.9404 8.01918 13.049C7.91649 13.1575 7.78566 13.2315 7.64323 13.2614C7.50079 13.2914 7.35316 13.276 7.21899 13.2172C7.08482 13.1585 6.97015 13.059 6.88947 12.9313C6.80879 12.8037 6.76572 12.6536 6.76572 12.5C6.76591 12.2942 6.84333 12.0969 6.98099 11.9513C7.11865 11.8058 7.3053 11.7239 7.49998 11.7237Z" fill="white"/>
<path d="M5.5 10.4912L3.9375 10.4868V10.4912H5.5ZM5.5 14.5088H3.93749L3.93751 14.5132L5.5 14.5088ZM6.43751 15.5L6.43263 17.0625H6.43751V15.5ZM13.5625 15.5V17.0625L13.5672 17.0625L13.5625 15.5ZM14.5 14.5088L16.0625 14.513V14.5088H14.5ZM14.5 10.4912H16.0625L16.0625 10.487L14.5 10.4912ZM13.5625 9.5L13.5672 7.9375H13.5625V9.5ZM6.43751 9.5V7.93749L6.4326 7.93751L6.43751 9.5ZM12.5 11.7237V10.1612L12.4984 10.1612L12.5 11.7237ZM11.7658 12.5L10.2033 12.4986V12.5L11.7658 12.5ZM10 11.7237V10.1612L9.99842 10.1612L10 11.7237ZM9.26574 12.5L7.70324 12.4986V12.5L9.26574 12.5ZM7.49998 11.7237V10.1612L7.49841 10.1612L7.49998 11.7237ZM6.76572 12.5L5.20322 12.4986V12.5L6.76572 12.5ZM3.9375 10.4912V14.5088H7.0625V10.4912H3.9375ZM3.93751 14.5132C3.93932 15.1616 4.18299 15.7991 4.64023 16.2825L6.91057 14.1351C7.0165 14.2471 7.06215 14.3813 7.06249 14.5045L3.93751 14.5132ZM4.64023 16.2825C5.10023 16.7689 5.74261 17.0603 6.43263 17.0625L6.44238 13.9375C6.63557 13.9381 6.80189 14.0202 6.91057 14.1351L4.64023 16.2825ZM6.43751 17.0625H13.5625V13.9375H6.43751V17.0625ZM13.5672 17.0625C14.2573 17.0604 14.8998 16.7689 15.3598 16.2825L13.0895 14.1352C13.1982 14.0202 13.3646 13.9381 13.5578 13.9375L13.5672 17.0625ZM15.3598 16.2825C15.8171 15.7991 16.0608 15.1615 16.0625 14.513L12.9375 14.5046C12.9378 14.3815 12.9835 14.2472 13.0895 14.1352L15.3598 16.2825ZM16.0625 14.5088V10.4912H12.9375V14.5088H16.0625ZM16.0625 10.487C16.0607 9.83852 15.8171 9.20093 15.3598 8.71746L13.0895 10.8648C12.9835 10.7528 12.9378 10.6186 12.9375 10.4954L16.0625 10.487ZM15.3598 8.71746C14.8998 8.23108 14.2573 7.9396 13.5672 7.93751L13.5578 11.0625C13.3645 11.0619 13.1982 10.9798 13.0895 10.8648L15.3598 8.71746ZM13.5625 7.9375H6.43751V11.0625H13.5625V7.9375ZM6.4326 7.93751C5.7426 7.93967 5.10023 8.23116 4.64024 8.71749L6.91057 10.8649C6.80189 10.9798 6.63558 11.0619 6.44241 11.0625L6.4326 7.93751ZM4.64024 8.71749C4.183 9.20091 3.93933 9.83843 3.93751 10.4868L7.06249 10.4956C7.06215 10.6187 7.0165 10.7529 6.91057 10.8649L4.64024 8.71749ZM12.5 13.2862C12.3162 13.2862 12.1443 13.2281 12.0064 13.1307L13.8095 10.5784C13.4301 10.3104 12.9743 10.1612 12.5 10.1612V13.2862ZM12.0064 13.1307C11.8697 13.0342 11.7758 12.9063 11.7236 12.7729L14.6332 11.633C14.4698 11.2159 14.1877 10.8456 13.8095 10.5784L12.0064 13.1307ZM11.7236 12.7729C11.6715 12.6401 11.6591 12.4984 11.6846 12.3626L14.7557 12.9404C14.8379 12.5034 14.7964 12.0496 14.6332 11.633L11.7236 12.7729ZM11.6846 12.3626C11.7102 12.2265 11.7753 12.0903 11.8841 11.9753L14.1544 14.1227C14.4685 13.7905 14.6735 13.3777 14.7557 12.9404L11.6846 12.3626ZM11.8841 11.9753C11.9937 11.8594 12.1442 11.7697 12.3217 11.7324L12.9648 14.7905C13.4272 14.6932 13.8394 14.4557 14.1544 14.1227L11.8841 11.9753ZM12.3217 11.7324C12.5 11.6949 12.6838 11.715 12.8458 11.786L11.5922 14.6485C12.0226 14.837 12.5016 14.8879 12.9648 14.7905L12.3217 11.7324ZM12.8458 11.786C13.0066 11.8564 13.1299 11.9693 13.2103 12.0966L10.5687 13.7661C10.8105 14.1487 11.1631 14.4606 11.5922 14.6485L12.8458 11.786ZM13.2103 12.0966C13.2903 12.2231 13.3283 12.3633 13.3283 12.5L10.2033 12.5C10.2033 12.9439 10.3274 13.3842 10.5687 13.7661L13.2103 12.0966ZM13.3283 12.5014C13.3281 12.6823 13.2608 12.8721 13.1162 13.025L10.8459 10.8776C10.4259 11.3217 10.2038 11.9061 10.2033 12.4986L13.3283 12.5014ZM13.1162 13.025C12.9688 13.1809 12.7497 13.286 12.5016 13.2862L12.4984 10.1612C11.861 10.1619 11.2686 10.4307 10.8459 10.8776L13.1162 13.025ZM10 13.2862C9.81617 13.2862 9.64427 13.2281 9.50639 13.1307L11.3095 10.5784C10.9301 10.3104 10.4743 10.1612 10 10.1612V13.2862ZM9.50639 13.1307C9.3697 13.0342 9.27579 12.9063 9.22353 12.7729L12.1332 11.633C11.9698 11.2159 11.6877 10.8456 11.3095 10.5784L9.50639 13.1307ZM9.22353 12.7729C9.17148 12.6401 9.15903 12.4984 9.18459 12.3626L12.2557 12.9404C12.3379 12.5034 12.2964 12.0496 12.1332 11.633L9.22353 12.7729ZM9.18459 12.3626C9.2102 12.2265 9.27528 12.0903 9.38403 11.9753L11.6544 14.1227C11.9685 13.7905 12.1734 13.3777 12.2557 12.9404L9.18459 12.3626ZM9.38403 11.9753C9.49366 11.8594 9.64414 11.7697 9.82169 11.7324L10.4648 14.7905C10.9272 14.6932 11.3394 14.4557 11.6544 14.1227L9.38403 11.9753ZM9.82169 11.7324C10 11.6949 10.1838 11.715 10.3458 11.786L9.09221 14.6485C9.52256 14.837 10.0016 14.8879 10.4648 14.7905L9.82169 11.7324ZM10.3458 11.786C10.5066 11.8564 10.6299 11.9693 10.7103 12.0966L8.06865 13.7661C8.31046 14.1487 8.66306 14.4606 9.09221 14.6485L10.3458 11.786ZM10.7103 12.0966C10.7903 12.2231 10.8282 12.3633 10.8282 12.5L7.70324 12.5C7.70324 12.9439 7.82734 13.3842 8.06865 13.7661L10.7103 12.0966ZM10.8282 12.5014C10.8281 12.6823 10.7608 12.8721 10.6162 13.025L8.34584 10.8776C7.92587 11.3217 7.70378 11.9061 7.70324 12.4986L10.8282 12.5014ZM10.6162 13.025C10.4687 13.1809 10.2497 13.286 10.0016 13.2862L9.99842 10.1612C9.36096 10.1619 8.7686 10.4307 8.34584 10.8776L10.6162 13.025ZM7.49998 13.2862C7.31615 13.2862 7.14425 13.2281 7.00637 13.1307L8.80946 10.5784C8.43008 10.3104 7.97426 10.1612 7.49998 10.1612V13.2862ZM7.00637 13.1307C6.86969 13.0342 6.77578 12.9063 6.72352 12.7729L9.63318 11.633C9.46977 11.2159 9.18764 10.8456 8.80946 10.5784L7.00637 13.1307ZM6.72352 12.7729C6.67146 12.6401 6.65902 12.4984 6.68457 12.3626L9.75569 12.9404C9.83791 12.5034 9.79638 12.0496 9.63318 11.633L6.72352 12.7729ZM6.68457 12.3626C6.71018 12.2265 6.77527 12.0903 6.88402 11.9753L9.15435 14.1227C9.46847 13.7905 9.67342 13.3777 9.75569 12.9404L6.68457 12.3626ZM6.88402 11.9753C6.99364 11.8594 7.14413 11.7697 7.32167 11.7324L7.96479 14.7905C8.42719 14.6932 8.83934 14.4557 9.15435 14.1227L6.88402 11.9753ZM7.32167 11.7324C7.49999 11.6949 7.68378 11.715 7.8458 11.786L6.59219 14.6485C7.02254 14.837 7.5016 14.8879 7.96479 14.7905L7.32167 11.7324ZM7.8458 11.786C8.0066 11.8564 8.12986 11.9693 8.2103 12.0966L5.56863 13.7661C5.81044 14.1487 6.16304 14.4606 6.59219 14.6485L7.8458 11.786ZM8.2103 12.0966C8.29025 12.2231 8.32822 12.3633 8.32822 12.5L5.20322 12.5C5.20322 12.9439 5.32732 13.3842 5.56863 13.7661L8.2103 12.0966ZM8.32822 12.5014C8.32806 12.6823 8.26081 12.8721 8.11615 13.025L5.84583 10.8776C5.42585 11.3217 5.20376 11.9061 5.20322 12.4986L8.32822 12.5014ZM8.11615 13.025C7.96872 13.1809 7.74967 13.286 7.50156 13.2862L7.49841 10.1612C6.86094 10.1619 6.26858 10.4307 5.84583 10.8776L8.11615 13.025Z" fill="white" mask="url(#path-3-inside-1_826_66295)"/>
<path d="M13.5 9.5V8.04425C13.5 7.10426 13.1313 6.20276 12.4749 5.53809C11.8185 4.87341 10.9283 4.5 10 4.5C9.07174 4.5 8.1815 4.87341 7.52513 5.53809C6.86875 6.20276 6.5 7.10426 6.5 8.04425V9.5H7.29035V8.04425C7.29035 7.31652 7.57583 6.61859 8.08399 6.104C8.59215 5.58942 9.28137 5.30032 10 5.30032C10.7187 5.30032 11.4079 5.58942 11.916 6.104C12.4242 6.61859 12.7097 7.31652 12.7097 8.04425V9.5H13.5Z" fill="white" stroke="white" stroke-width="0.5"/>
</g>
<defs>
<clipPath id="clip0_826_66295">
<rect width="20" height="20" fill="white"/>
</clipPath>
</defs>
</svg>
