<svg width="24" height="24" viewBox="0 0 24 24" fill="none" xmlns="http://www.w3.org/2000/svg">
<path d="M21.6034 4H2.39665C1.35087 4 0.5 5.00298 0.5 6.23585V10.7642C0.5 11.997 1.35087 13 2.39665 13H13.5405C13.7394 13 13.9007 12.8099 13.9007 12.5755C13.9007 12.341 13.7394 12.1509 13.5405 12.1509H2.39665C1.74797 12.1509 1.22023 11.5288 1.22023 10.7641V6.23579C1.22023 5.47111 1.74797 4.84899 2.39665 4.84899H21.6033C22.252 4.84899 22.7797 5.47111 22.7797 6.23579V8.49997C22.7797 8.73441 22.9409 8.92452 23.1399 8.92452C23.3387 8.92452 23.5 8.73446 23.5 8.49997V6.23579C23.5 5.00298 22.6491 4 21.6034 4Z" fill="#4086F4" stroke="#4086F4" stroke-width="0.6"/>
<path d="M22.4809 13.1078V11.8327C22.4809 9.9496 20.9487 8.41748 19.0656 8.41748C17.1825 8.41748 15.6504 9.9496 15.6504 11.8327V13.1078C14.9824 13.3334 14.5 13.9656 14.5 14.7087V16.4343C14.5 18.9518 16.5481 21 19.0657 21C21.5832 21 23.6314 18.9519 23.6314 16.4343V14.7087C23.6313 13.9656 23.1488 13.3334 22.4809 13.1078ZM16.7289 11.8328C16.7289 10.5443 17.7771 9.49602 19.0656 9.49602C20.3541 9.49602 21.4024 10.5443 21.4024 11.8328V13.0192H16.7289V11.8328ZM22.5528 16.4344C22.5528 18.3572 20.9884 19.9215 19.0656 19.9215C17.1428 19.9215 15.5785 18.3572 15.5785 16.4344V14.7088C15.5785 14.3718 15.8527 14.0976 16.1897 14.0976H21.9416C22.2786 14.0976 22.5528 14.3718 22.5528 14.7088L22.5528 16.4344Z" fill="#4086F4" stroke="#4086F4" stroke-width="0.2"/>
<path d="M19.0676 15.3201C18.453 15.3201 17.9531 15.82 17.9531 16.4345C17.9531 16.8535 18.1857 17.2188 18.5283 17.4092V17.7827C18.5283 18.0805 18.7697 18.322 19.0676 18.322C19.3654 18.322 19.6069 18.0805 19.6069 17.7827V17.4092C19.9494 17.2189 20.1821 16.8535 20.1821 16.4345C20.1821 15.82 19.6821 15.3201 19.0676 15.3201Z" fill="#4086F4"/>
<path d="M10.6703 8.661L9.96904 8.30005L10.6703 7.9391C10.8231 7.86044 10.8754 7.68626 10.7872 7.55005C10.699 7.4138 10.5036 7.36712 10.3508 7.44581L9.64956 7.80676V7.08487C9.64956 6.92759 9.50654 6.80005 9.33008 6.80005C9.15362 6.80005 9.01059 6.92755 9.01059 7.08487V7.80676L8.30934 7.44581C8.15651 7.36712 7.96117 7.41384 7.87294 7.55005C7.78471 7.68626 7.83707 7.86044 7.98986 7.9391L8.69111 8.30005L7.98986 8.661C7.83707 8.73965 7.78471 8.91384 7.87294 9.05005C7.93212 9.14142 8.03947 9.19247 8.1499 9.19247C8.2041 9.19247 8.25901 9.18018 8.30934 9.15428L9.01059 8.79333V9.51523C9.01059 9.67251 9.15362 9.80005 9.33008 9.80005C9.50654 9.80005 9.64956 9.67254 9.64956 9.51523V8.79333L10.3508 9.15428C10.4011 9.18018 10.4561 9.19247 10.5103 9.19247C10.6207 9.19247 10.728 9.14135 10.7872 9.05005C10.8754 8.91384 10.8231 8.73965 10.6703 8.661Z" fill="url(#paint0_linear_826_66114)"/>
<path d="M5.85975 8.661L5.1585 8.30005L5.85975 7.9391C6.01254 7.86044 6.0649 7.68626 5.97667 7.55005C5.88844 7.4138 5.69305 7.36712 5.54027 7.44581L4.83901 7.80676V7.08487C4.83901 6.92759 4.69599 6.80005 4.51953 6.80005C4.34307 6.80005 4.20005 6.92755 4.20005 7.08487V7.80676L3.4988 7.44581C3.34597 7.36712 3.15062 7.41384 3.06239 7.55005C2.97416 7.68626 3.02652 7.86044 3.17931 7.9391L3.88057 8.30005L3.17931 8.661C3.02652 8.73965 2.97416 8.91384 3.06239 9.05005C3.12157 9.14142 3.22893 9.19247 3.33935 9.19247C3.39355 9.19247 3.44846 9.18018 3.4988 9.15428L4.20005 8.79333V9.51523C4.20005 9.67251 4.34307 9.80005 4.51953 9.80005C4.69599 9.80005 4.83901 9.67254 4.83901 9.51523V8.79333L5.54027 9.15428C5.59056 9.18018 5.64551 9.19247 5.69971 9.19247C5.81014 9.19247 5.91749 9.14135 5.97667 9.05005C6.0649 8.91384 6.01254 8.73965 5.85975 8.661Z" fill="url(#paint1_linear_826_66114)"/>
<path d="M15.4808 8.661L14.7796 8.30005L15.4808 7.9391C15.6336 7.86044 15.686 7.68626 15.5978 7.55005C15.5095 7.4138 15.3141 7.36712 15.1614 7.44581L14.4601 7.80676V7.08487C14.4601 6.92759 14.3171 6.80005 14.1406 6.80005C13.9642 6.80005 13.8211 6.92755 13.8211 7.08487V7.80676L13.1199 7.44581C12.9671 7.36712 12.7717 7.41384 12.6835 7.55005C12.5953 7.68626 12.6476 7.86044 12.8004 7.9391L13.5017 8.30005L12.8004 8.661C12.6476 8.73965 12.5953 8.91384 12.6835 9.05005C12.7427 9.14142 12.85 9.19247 12.9604 9.19247C13.0146 9.19247 13.0696 9.18018 13.1199 9.15428L13.8211 8.79333V9.51523C13.8211 9.67251 13.9642 9.80005 14.1406 9.80005C14.3171 9.80005 14.4601 9.67254 14.4601 9.51523V8.79333L15.1614 9.15428C15.2117 9.18018 15.2666 9.19247 15.3208 9.19247C15.4312 9.19247 15.5386 9.14135 15.5978 9.05005C15.686 8.91384 15.6336 8.73965 15.4808 8.661Z" fill="url(#paint2_linear_826_66114)"/>
<defs>
<linearGradient id="paint0_linear_826_66114" x1="7.83008" y1="8.30005" x2="9.91076" y2="8.30005" gradientUnits="userSpaceOnUse">
<stop stop-color="#FF8E3C"/>
<stop offset="0.5" stop-color="#F7931A"/>
<stop offset="1" stop-color="#FFAF4F"/>
</linearGradient>
<linearGradient id="paint1_linear_826_66114" x1="3.01953" y1="8.30005" x2="5.10022" y2="8.30005" gradientUnits="userSpaceOnUse">
<stop stop-color="#FF8E3C"/>
<stop offset="0.5" stop-color="#F7931A"/>
<stop offset="1" stop-color="#FFAF4F"/>
</linearGradient>
<linearGradient id="paint2_linear_826_66114" x1="12.6406" y1="8.30005" x2="14.7213" y2="8.30005" gradientUnits="userSpaceOnUse">
<stop stop-color="#FF8E3C"/>
<stop offset="0.5" stop-color="#F7931A"/>
<stop offset="1" stop-color="#FFAF4F"/>
</linearGradient>
</defs>
</svg>
